<svg width="158" height="28" viewBox="0 0 158 28" fill="none" xmlns="http://www.w3.org/2000/svg">
<g clip-path="url(#clip0_218_19)">
<path d="M11.8494 28C9.53455 28 7.51109 27.6884 5.77901 27.0651C4.04692 26.4418 2.67906 25.5459 1.67543 24.3773C0.687977 23.1931 0.137595 21.7752 0.0242815 20.1235L0 19.8197H5.73044L5.75473 20.0301C5.90041 20.7624 6.24845 21.3934 6.79883 21.9232C7.3654 22.4374 8.08575 22.8425 8.95989 23.1386C9.85021 23.419 10.8619 23.5593 11.9951 23.5593C13.1606 23.5593 14.1561 23.4112 14.9817 23.1152C15.8235 22.8191 16.471 22.4062 16.9242 21.8765C17.3775 21.3311 17.6041 20.7078 17.6041 20.0067V19.9833C17.6041 19.0173 17.2075 18.2693 16.4143 17.7396C15.6373 17.1942 14.3342 16.7501 12.505 16.4073L9.37268 15.7997C6.47508 15.2699 4.28974 14.374 2.81666 13.1119C1.35977 11.8342 0.63132 10.1825 0.63132 8.15693V8.13356C0.647508 6.4975 1.13314 5.07179 2.08821 3.85643C3.04329 2.64107 4.36258 1.69839 6.0461 1.02838C7.72962 0.342794 9.65596 0 11.8251 0C14.0752 0 16.0258 0.327212 17.677 0.981636C19.3281 1.62048 20.615 2.532 21.5377 3.71619C22.4604 4.90039 22.9703 6.27156 23.0675 7.82972L23.0917 8.15693H17.3856L17.337 7.94658C17.1751 6.84029 16.5924 5.98331 15.5888 5.37563C14.6013 4.75237 13.3468 4.44073 11.8251 4.44073C10.7567 4.44073 9.83402 4.58097 9.05702 4.86144C8.29619 5.1419 7.70534 5.53923 7.28446 6.05342C6.87977 6.55203 6.67742 7.14413 6.67742 7.82972V7.85309C6.67742 8.72565 7.07402 9.43461 7.86722 9.97997C8.67661 10.5253 9.93115 10.9616 11.6309 11.2888L14.7389 11.8731C17.8307 12.4496 20.0889 13.3456 21.5134 14.5609C22.9542 15.7607 23.6745 17.4279 23.6745 19.5626V19.586C23.6745 21.2999 23.197 22.788 22.2419 24.0501C21.303 25.3122 19.9513 26.286 18.1869 26.9716C16.4386 27.6572 14.3261 28 11.8494 28Z" fill="white"/>
<path d="M39.9189 27.9998C37.4098 27.9998 35.2325 27.5869 33.3871 26.7611C31.5417 25.9197 30.1091 24.7433 29.0893 23.2319C28.0857 21.7204 27.5838 19.9675 27.5838 17.9731V0.467285H33.6299V17.5056C33.6299 19.2975 34.1722 20.731 35.2568 21.8061C36.3576 22.8657 37.9116 23.3955 39.9189 23.3955C41.9261 23.3955 43.464 22.8657 44.5323 21.8061C45.6169 20.731 46.1592 19.2975 46.1592 17.5056V0.467285H52.2053V17.9731C52.2053 19.9675 51.7035 21.7204 50.6999 23.2319C49.7124 24.7277 48.296 25.8963 46.4506 26.7377C44.6214 27.5791 42.4441 27.9998 39.9189 27.9998Z" fill="white"/>
<path d="M60.4368 27.5324V23.4656H68.8139C70.6107 23.4656 71.9786 23.1306 72.9175 22.4606C73.8725 21.775 74.3501 20.7856 74.3501 19.4923V19.4689C74.3501 18.1756 73.8645 17.194 72.8932 16.524C71.9219 15.854 70.4812 15.519 68.5711 15.519H60.4368V11.7794H67.8426C69.5909 11.7794 70.9183 11.4522 71.8248 10.7978C72.7475 10.1434 73.2089 9.21631 73.2089 8.01653V7.99316C73.2089 6.88687 72.8042 6.02989 71.9948 5.42221C71.1854 4.81453 70.0523 4.51069 68.5954 4.51069H60.4368V0.467285H70.1494C72.9175 0.467285 75.1028 1.07497 76.7054 2.29032C78.3242 3.50568 79.1336 5.15732 79.1336 7.24525V7.26862C79.1336 8.73328 78.5913 10.0343 77.5067 11.1718C76.4221 12.2936 75.0785 12.9636 73.4759 13.1818V13.2753C74.8519 13.3687 76.066 13.7115 77.1182 14.3036C78.1866 14.8802 79.0202 15.6437 79.6192 16.5941C80.2181 17.5446 80.5176 18.6119 80.5176 19.7961V19.8429C80.5176 21.401 80.1048 22.7644 79.2792 23.933C78.4537 25.0861 77.2801 25.9742 75.7584 26.5975C74.253 27.2207 72.448 27.5324 70.3436 27.5324H60.4368ZM57.4016 27.5324V0.467285H63.4477V27.5324H57.4016Z" fill="white"/>
<path d="M97.4418 28C94.528 28 92.0109 27.4313 89.8903 26.2938C87.7697 25.1564 86.1347 23.5437 84.9854 21.4558C83.8361 19.3523 83.2614 16.867 83.2614 14V13.9766C83.2614 11.1096 83.8361 8.63217 84.9854 6.54424C86.1509 4.44073 87.794 2.82805 89.9146 1.70618C92.0351 0.568726 94.5442 0 97.4418 0C100.339 0 102.849 0.568726 104.969 1.70618C107.09 2.82805 108.725 4.44073 109.874 6.54424C111.023 8.63217 111.598 11.1096 111.598 13.9766V14C111.598 16.867 111.023 19.3523 109.874 21.4558C108.741 23.5437 107.114 25.1564 104.993 26.2938C102.873 27.4313 100.356 28 97.4418 28ZM97.4418 23.3957C99.093 23.3957 100.517 23.0061 101.715 22.227C102.913 21.448 103.836 20.3573 104.483 18.9549C105.131 17.5526 105.455 15.9009 105.455 14V13.9533C105.455 12.0211 105.123 10.3617 104.459 8.97496C103.812 7.57262 102.889 6.48971 101.691 5.72621C100.493 4.96272 99.0768 4.58097 97.4418 4.58097C95.8231 4.58097 94.4066 4.96272 93.1926 5.72621C91.9947 6.47412 91.0639 7.54925 90.4002 8.95159C89.7527 10.3539 89.4289 12.0211 89.4289 13.9533V14C89.4289 15.9321 89.7527 17.5993 90.4002 19.0017C91.0639 20.404 91.9947 21.4869 93.1926 22.2504C94.4066 23.0139 95.8231 23.3957 97.4418 23.3957Z" fill="white"/>
<path d="M115.774 27.5324V0.467285H122.767L131.217 20.3103H131.339L139.789 0.467285H146.782V27.5324H141.391V8.92805H138.599L144.645 1.19183L133.209 27.5324H129.372L117.911 1.19183L123.957 8.92805H121.189V27.5324H115.774Z" fill="white"/>
<path d="M151.954 27.5324V0.467285H158V27.5324H151.954Z" fill="white"/>
</g>
<defs>
<clipPath id="clip0_218_19">
<rect width="158" height="28" fill="white"/>
</clipPath>
</defs>
</svg>
